<svg width="16" height="17" viewBox="0 0 16 17" fill="none" xmlns="http://www.w3.org/2000/svg">
<path d="M6.75219 13.4845C8.04197 13.4844 9.30437 13.1124 10.3882 12.4133L14.2373 16.2604C14.3332 16.3563 14.447 16.4324 14.5723 16.4843C14.6976 16.5361 14.8318 16.5629 14.9674 16.5629C15.103 16.5629 15.2373 16.5361 15.3626 16.4843C15.4879 16.4324 15.6017 16.3563 15.6976 16.2604C15.7935 16.1645 15.8695 16.0507 15.9214 15.9254C15.9733 15.8002 16 15.6659 16 15.5303C16 15.3947 15.9733 15.2604 15.9214 15.1351C15.8695 15.0099 15.7935 14.896 15.6976 14.8001L11.9364 11.041C12.9139 9.85991 13.4597 8.38099 13.4837 6.8481C13.5078 5.3152 13.0087 3.81988 12.0688 2.60872C11.1289 1.39755 9.80429 0.542873 8.31342 0.185621C6.82254 -0.17163 5.25443 -0.0101204 3.86767 0.643517C2.48092 1.29715 1.35833 2.40389 0.685028 3.7812C0.0117296 5.15852 -0.172071 6.72418 0.163936 8.21999C0.499943 9.71579 1.33569 11.0524 2.53336 12.0095C3.73103 12.9665 5.21911 13.4868 6.75219 13.4845ZM6.75219 1.23546C7.84052 1.23739 8.90387 1.56189 9.80785 2.16794C10.7118 2.774 11.4159 3.63441 11.831 4.64046C12.2462 5.64651 12.3538 6.75304 12.1403 7.82024C11.9268 8.88743 11.4017 9.86738 10.6315 10.6363C9.86122 11.4052 8.88033 11.9285 7.81277 12.1401C6.7452 12.3517 5.63886 12.2421 4.63355 11.8252C3.62823 11.4083 2.76907 10.7027 2.16462 9.79763C1.56017 8.89257 1.23756 7.82865 1.23756 6.74031C1.23963 5.27928 1.82161 3.87882 2.85564 2.84663C3.88966 1.81444 5.29115 1.23494 6.75219 1.23546Z" fill="#777777"/>
</svg>
