<svg width="11" height="14" viewBox="0 0 11 14" fill="none" xmlns="http://www.w3.org/2000/svg">
<path d="M0.599998 1.50023V12.094C0.60084 12.2939 0.655573 12.4897 0.758428 12.6611C0.861283 12.8324 1.00845 12.9728 1.18442 13.0674C1.36038 13.1621 1.55863 13.2075 1.75826 13.199C1.9579 13.1904 2.15152 13.1281 2.31873 13.0187L10.048 7.88265C10.2242 7.76399 10.3685 7.60386 10.4683 7.41633C10.5681 7.2288 10.6203 7.01962 10.6203 6.80719C10.6203 6.59475 10.5681 6.38558 10.4683 6.19805C10.3685 6.01052 10.2242 5.85038 10.048 5.73172L2.31873 0.585584C2.1526 0.474871 1.95959 0.411207 1.76019 0.40135C1.56079 0.391493 1.36244 0.435812 1.1862 0.529601C1.00996 0.62339 0.862402 0.763149 0.759192 0.934044C0.655982 1.10494 0.600971 1.30059 0.599998 1.50023Z" fill="white"/>
</svg>
